<?xml version="1.0" encoding="UTF-8" standalone="no"?>
<!-- Generator: Adobe Illustrator 19.0.0, SVG Export Plug-In . SVG Version: 6.00 Build 0)  -->

<svg
   xmlns:dc="http://purl.org/dc/elements/1.1/"
   xmlns:cc="http://creativecommons.org/ns#"
   xmlns:rdf="http://www.w3.org/1999/02/22-rdf-syntax-ns#"
   xmlns:svg="http://www.w3.org/2000/svg"
   xmlns="http://www.w3.org/2000/svg"
   xmlns:sodipodi="http://sodipodi.sourceforge.net/DTD/sodipodi-0.dtd"
   xmlns:inkscape="http://www.inkscape.org/namespaces/inkscape"
   version="1.1"
   id="Capa_1"
   x="0px"
   y="0px"
   viewBox="0 0 352.4 352.4"
   style="enable-background:new 0 0 352.4 352.4;"
   xml:space="preserve"
   sodipodi:docname="frame.svg"
   inkscape:version="0.92.4 (5da689c313, 2019-01-14)"><metadata
   id="metadata51"><rdf:RDF><cc:Work
       rdf:about=""><dc:format>image/svg+xml</dc:format><dc:type
         rdf:resource="http://purl.org/dc/dcmitype/StillImage" /></cc:Work></rdf:RDF></metadata><defs
   id="defs49" /><sodipodi:namedview
   pagecolor="#ffffff"
   bordercolor="#666666"
   borderopacity="1"
   objecttolerance="10"
   gridtolerance="10"
   guidetolerance="10"
   inkscape:pageopacity="0"
   inkscape:pageshadow="2"
   inkscape:window-width="1920"
   inkscape:window-height="1017"
   id="namedview47"
   showgrid="false"
   inkscape:zoom="0.66969354"
   inkscape:cx="-132.15"
   inkscape:cy="176.2"
   inkscape:window-x="-8"
   inkscape:window-y="-8"
   inkscape:window-maximized="1"
   inkscape:current-layer="Capa_1" />
<g
   id="g14"
   style="fill:#8cd1a4;fill-opacity:1">
	<g
   id="g12"
   style="fill:#8cd1a4;fill-opacity:1">
		<g
   id="g10"
   style="fill:#8cd1a4;fill-opacity:1">
			<path
   d="M332.6,16.4C322.2,6,308.2,0,292.6,0h-54v21.6h53.6c9.6,0,18.4,4,24.8,10.4c6.4,6.4,10.4,15.2,10.4,24.8V114H349V56.4     C349,40.8,342.6,26.8,332.6,16.4z"
   id="path2"
   style="fill:#8cd1a4;fill-opacity:1" />
			<path
   d="M35.4,320C29,313.6,25,304.8,25,295.2v-56.8H3.4v57.2c0,15.6,6.4,29.6,16.4,40c10.8,10,24.8,16.4,40.4,16.4h53.6v-21.6     H60.2C50.6,330.4,41.8,326.4,35.4,320z"
   id="path4"
   style="fill:#8cd1a4;fill-opacity:1" />
			<path
   d="M327,295.6c0,9.6-4,18.4-10.4,24.8c-6.4,6.4-15.2,10.4-24.8,10.4h-53.2v21.6h53.6c15.6,0,29.6-6.4,40-16.4     c10.4-10.4,16.4-24.4,16.4-40v-57.6H327V295.6z"
   id="path6"
   style="fill:#8cd1a4;fill-opacity:1" />
			<path
   d="M20.2,16.4C9.8,26.8,3.8,40.8,3.8,56.4v57.2h21.6V56.4c0-9.6,4-18.4,10.4-24.8c6.4-6.4,15.2-10.4,24.8-10.4h53.6V0h-54     C44.6,0,30.6,6.4,20.2,16.4z"
   id="path8"
   style="fill:#8cd1a4;fill-opacity:1" />
		</g>
	</g>
</g>
<g
   id="g16">
</g>
<g
   id="g18">
</g>
<g
   id="g20">
</g>
<g
   id="g22">
</g>
<g
   id="g24">
</g>
<g
   id="g26">
</g>
<g
   id="g28">
</g>
<g
   id="g30">
</g>
<g
   id="g32">
</g>
<g
   id="g34">
</g>
<g
   id="g36">
</g>
<g
   id="g38">
</g>
<g
   id="g40">
</g>
<g
   id="g42">
</g>
<g
   id="g44">
</g>
</svg>